<?xml version="1.0" encoding="iso-8859-1"?>
<!-- Generator: Adobe Illustrator 19.0.0, SVG Export Plug-In . SVG Version: 6.00 Build 0)  -->
<svg version="1.1" id="Capa_1" xmlns="http://www.w3.org/2000/svg" xmlns:xlink="http://www.w3.org/1999/xlink" x="0px" y="0px"
	 viewBox="0 0 512 512" style="enable-background:new 0 0 512 512;" xml:space="preserve">
<g>
	<g>
		<path d="M135.25,135.031v-20.296c0-4.2-3.405-7.604-7.604-7.604h-22.305c-4.199,0-7.604,3.404-7.604,7.604v20.296
			c-12.654,6.738-21.291,20.061-21.291,35.37c0,15.309,8.637,28.631,21.291,35.37v97.545c0,4.2,3.405,7.604,7.604,7.604h22.305
			c4.199,0,7.604-3.404,7.604-7.604V205.77c12.654-6.738,21.291-20.061,21.291-35.37C156.541,155.09,147.904,141.768,135.25,135.031
			z M112.944,122.339h0.001h7.097v8.179c-1.17-0.103-2.352-0.166-3.549-0.166c-1.197,0-2.379,0.063-3.549,0.166V122.339z
			 M120.043,295.709h-0.001h-7.097v-85.428c1.17,0.103,2.352,0.166,3.549,0.166s2.378-0.063,3.549-0.166V295.709z M116.494,195.239
			c-13.696,0-24.84-11.142-24.84-24.84s11.143-24.84,24.84-24.84c13.696,0,24.84,11.142,24.84,24.84S130.19,195.239,116.494,195.239
			z"/>
	</g>
</g>
<g>
	<g>
		<path d="M93.617,341.667c-22.627,0-41.037,18.41-41.037,41.038s18.41,41.037,41.037,41.037s41.037-18.409,41.037-41.037
			C134.654,360.076,116.244,341.667,93.617,341.667z M93.617,408.534c-14.242,0-25.829-11.587-25.829-25.829
			c0-11.597,7.683-21.432,18.225-24.685v17.428c0,4.2,3.405,7.604,7.604,7.604c4.199,0,7.604-3.404,7.604-7.604v-17.428
			c10.542,3.254,18.225,13.089,18.225,24.685C119.446,396.946,107.859,408.534,93.617,408.534z"/>
	</g>
</g>
<g>
	<g>
		<path d="M352.997,70.294h-92.769v-24.84c0-4.2-3.405-7.604-7.604-7.604h-41.906c-4.199,0-7.604,3.404-7.604,7.604v24.84h-50.017
			v-24.84c0-4.2-3.405-7.604-7.604-7.604H113.05c-4.199,0-7.604,3.404-7.604,7.604c0,4.2,3.405,7.604,7.604,7.604h24.84v17.236
			H69.284v-24.84c0-4.2-3.405-7.604-7.604-7.604c-4.199,0-7.604,3.404-7.604,7.604v24.84H7.604C3.405,70.294,0,73.697,0,77.898
			v388.647c0,4.2,3.405,7.604,7.604,7.604h68.269c4.199,0,7.604-3.404,7.604-7.604s-3.404-7.603-7.604-7.603H15.208V85.502H61.68
			h83.813h65.225h41.906h100.373c4.199,0,7.604-3.404,7.604-7.604S357.197,70.294,352.997,70.294z M245.02,70.294h-26.698V53.059
			h26.698V70.294z"/>
	</g>
</g>
<g>
	<g>
		<path d="M504.396,70.294h-80.429c-4.199,0-7.604,3.404-7.604,7.604s3.405,7.604,7.604,7.604h72.825v373.439H143.464
			c-4.199,0-7.604,3.404-7.604,7.604s3.405,7.604,7.604,7.604h360.932c4.199,0,7.604-3.404,7.604-7.604V77.898
			C512,73.698,508.595,70.294,504.396,70.294z"/>
	</g>
</g>
<g>
	<g>
		<path d="M321.296,135.031v-20.295c0-4.2-3.405-7.604-7.604-7.604h-22.305c-4.199,0-7.604,3.404-7.604,7.604v20.295
			c-12.654,6.738-21.291,20.061-21.291,35.37c0,15.309,8.637,28.631,21.291,35.37v97.545c0,4.2,3.405,7.604,7.604,7.604h22.305
			c4.199,0,7.604-3.404,7.604-7.604v-97.545c12.654-6.738,21.291-20.061,21.291-35.37
			C342.587,155.093,333.95,141.77,321.296,135.031z M298.99,122.339h0.001h7.097v8.179c-1.17-0.103-2.352-0.166-3.549-0.166
			s-2.379,0.063-3.549,0.166V122.339z M306.089,295.709h-0.001h-7.097v-85.428c1.17,0.103,2.352,0.166,3.549,0.166
			s2.379-0.063,3.549-0.166V295.709z M302.539,195.239c-13.696,0-24.84-11.142-24.84-24.84s11.143-24.84,24.84-24.84
			c13.696,0,24.84,11.142,24.84,24.84S316.236,195.239,302.539,195.239z"/>
	</g>
</g>
<g>
	<g>
		<path d="M228.273,204.177v-89.443c0-4.2-3.405-7.604-7.604-7.604h-22.305c-4.199,0-7.604,3.404-7.604,7.604v89.443
			c-12.654,6.738-21.291,20.061-21.291,35.37c0,15.309,8.637,28.631,21.291,35.37v28.397c0,4.2,3.405,7.604,7.604,7.604h22.305
			c4.199,0,7.604-3.404,7.604-7.604v-28.397c12.654-6.738,21.291-20.061,21.291-35.37
			C249.564,224.239,240.927,210.916,228.273,204.177z M205.967,122.339L205.967,122.339h7.098v77.326
			c-1.17-0.103-2.352-0.166-3.549-0.166c-1.197,0-2.378,0.063-3.549,0.166V122.339z M213.066,295.709L213.066,295.709h-7.098v-16.28
			c1.17,0.103,2.352,0.166,3.549,0.166c1.197,0,2.379-0.063,3.549-0.166V295.709z M209.516,264.386
			c-13.696,0-24.84-11.142-24.84-24.84s11.143-24.84,24.84-24.84c13.696,0,24.84,11.142,24.84,24.84
			S223.213,264.386,209.516,264.386z"/>
	</g>
</g>
<g>
	<g>
		<path d="M414.319,204.177v-89.443c0-4.2-3.405-7.604-7.604-7.604H384.41c-4.199,0-7.604,3.404-7.604,7.604v89.443
			c-12.654,6.738-21.291,20.061-21.291,35.37c0,15.309,8.637,28.631,21.291,35.37v28.397c0,4.2,3.405,7.604,7.604,7.604h22.305
			c4.199,0,7.604-3.404,7.604-7.604v-28.397c12.654-6.738,21.291-20.061,21.291-35.37
			C435.61,224.239,426.973,210.916,414.319,204.177z M392.013,122.339h0.001h7.097v77.326c-1.17-0.103-2.352-0.166-3.549-0.166
			s-2.379,0.063-3.549,0.166V122.339z M399.112,295.709L399.112,295.709h-7.098v-16.28c1.17,0.103,2.352,0.166,3.549,0.166
			s2.379-0.063,3.549-0.166V295.709z M395.562,264.386c-13.696,0-24.84-11.142-24.84-24.84s11.143-24.84,24.84-24.84
			c13.696,0,24.84,11.142,24.84,24.84S409.258,264.386,395.562,264.386z"/>
	</g>
</g>
<g>
	<g>
		<path d="M310.752,341.667c-22.627,0-41.037,18.41-41.037,41.038s18.41,41.037,41.037,41.037c22.627,0,41.037-18.409,41.037-41.037
			S333.379,341.667,310.752,341.667z M310.752,408.534c-14.242,0-25.829-11.587-25.829-25.829c0-11.597,7.683-21.432,18.225-24.685
			v17.428c0,4.2,3.405,7.604,7.604,7.604c4.199,0,7.604-3.404,7.604-7.604v-17.428c10.542,3.254,18.225,13.089,18.225,24.685
			C336.581,396.945,324.993,408.534,310.752,408.534z"/>
	</g>
</g>
<g>
	<g>
		<path d="M460.326,356.971c-6.874-8.539-16.662-13.889-27.559-15.066c-10.898-1.172-21.602,1.961-30.14,8.834
			c-8.538,6.873-13.889,16.661-15.066,27.559c-2.43,22.497,13.896,42.777,36.394,45.208c1.491,0.16,2.97,0.239,4.436,0.239
			c20.668,0,38.501-15.628,40.769-36.633C470.336,376.214,467.2,365.51,460.326,356.971z M454.04,385.479
			c-1.529,14.161-14.293,24.453-28.453,22.906c-14.161-1.53-24.436-14.294-22.906-28.453c0.741-6.86,4.108-13.02,9.483-17.345
			c3.336-2.685,7.198-4.448,11.287-5.235l-1.871,17.323c-0.451,4.175,2.568,7.925,6.743,8.378c0.277,0.029,0.553,0.045,0.825,0.045
			c3.833,0,7.13-2.892,7.55-6.788l1.873-17.338c3.828,1.638,7.223,4.2,9.908,7.537C452.806,371.883,454.781,378.618,454.04,385.479z
			"/>
	</g>
</g>
<g>
	<g>
		<path d="M237.039,365.24c-9.629-20.477-34.124-29.3-54.598-19.673c-20.477,9.63-29.302,34.122-19.673,54.599
			c4.665,9.92,12.913,17.428,23.226,21.144c4.543,1.636,9.247,2.452,13.937,2.452c5.955,0,11.888-1.313,17.436-3.923
			C237.843,410.211,246.667,385.719,237.039,365.24z M210.894,406.078c-6.244,2.935-13.256,3.264-19.747,0.927
			c-6.491-2.339-11.682-7.066-14.618-13.309c-6.061-12.888-0.507-28.305,12.381-34.366c3.542-1.666,7.274-2.454,10.952-2.454
			c7.217,0,14.215,3.042,19.139,8.443l-15.768,7.415c-3.8,1.787-5.432,6.316-3.645,10.117c1.296,2.755,4.031,4.371,6.886,4.371
			c1.084,0,2.185-0.232,3.231-0.725l15.772-7.416C227.019,390.006,221.389,401.143,210.894,406.078z"/>
	</g>
</g>
<g>
</g>
<g>
</g>
<g>
</g>
<g>
</g>
<g>
</g>
<g>
</g>
<g>
</g>
<g>
</g>
<g>
</g>
<g>
</g>
<g>
</g>
<g>
</g>
<g>
</g>
<g>
</g>
<g>
</g>
</svg>
