<?xml version="1.0" encoding="iso-8859-1"?>
<!-- Generator: Adobe Illustrator 19.0.0, SVG Export Plug-In . SVG Version: 6.00 Build 0)  -->
<svg version="1.1" id="Layer_1" xmlns="http://www.w3.org/2000/svg" xmlns:xlink="http://www.w3.org/1999/xlink" x="0px" y="0px"
	 viewBox="0 0 512.001 512.001" style="enable-background:new 0 0 512.001 512.001;" xml:space="preserve">
<g>
	<g>
		<path d="M486.865,329.494c-12.779-12.765-28.889-20.991-46.359-23.915v-85.091c0-42.727-14.942-84.382-42.074-117.294
			c-35.216-42.716-87.131-67.214-142.43-67.214c-49.292,0-95.624,19.195-130.461,54.046c-4.162,4.162-8.176,8.578-11.943,13.135
			c-27.151,32.918-42.104,74.585-42.104,117.326v85.091c-17.47,2.923-33.583,11.153-46.37,23.926C8.922,345.725,0,367.276,0,390.188
			c0,47.192,38.392,85.697,85.621,85.832h32.999c21.225,0,38.495-17.27,38.495-38.495v-94.661c0-21.225-17.27-38.495-38.495-38.495
			H99.747v-83.883c0-31.071,9.353-61.454,26.529-87.061c19.978,17.633,49.693,20.006,71.85,5.358
			c8.419-5.562,17.547-9.86,27.127-12.782c9.922-3.024,20.269-4.557,30.748-4.557c20.69,0,40.713,6.001,57.895,17.349
			c9.843,6.509,21.125,9.688,32.378,9.688c14.217,0,28.38-5.086,39.541-14.922c17.12,25.583,26.438,55.911,26.438,86.926v83.883
			h-18.872c-21.225,0-38.495,17.27-38.495,38.495v94.662c0,21.225,17.27,38.495,38.495,38.495h32.802h0.237
			c47.19-0.136,85.581-38.64,85.581-85.832C512,367.275,503.078,345.724,486.865,329.494z M99.748,374.663v-42.04h18.873
			c5.648,0,10.242,4.594,10.242,10.242v94.661c0,5.648-4.594,10.242-10.242,10.242h-32.96c-31.656-0.09-57.409-25.919-57.409-57.58
			c0-15.372,5.988-29.832,16.85-40.705c7.414-7.405,16.494-12.543,26.392-15.067v40.248c0,7.801,6.326,14.126,14.127,14.126
			C93.423,388.79,99.748,382.464,99.748,374.663z M329.473,115.225C307.649,100.812,282.241,93.193,256,93.193
			c-13.272,0-26.387,1.947-38.983,5.785c-12.181,3.712-23.776,9.174-34.467,16.236c-11.858,7.837-27.938,6.227-38.437-3.769
			c0.469-0.482,0.934-0.968,1.407-1.442C175.021,80.488,214.258,64.234,256,64.234c42.508,0,82.655,17.099,112.013,47.311
			C357.507,121.548,341.438,123.137,329.473,115.225z M412.253,447.768h-18.872c-5.648,0-10.242-4.594-10.242-10.242v-94.661
			c0-5.648,4.594-10.242,10.242-10.242h18.872V447.768z M440.506,445.959V334.415c9.897,2.524,18.976,7.659,26.381,15.056
			c10.873,10.884,16.861,25.344,16.861,40.717C483.747,416.968,465.32,439.571,440.506,445.959z"/>
	</g>
</g>
<g>
	<g>
		<path d="M85.621,398.914c-7.801,0-14.126,6.326-14.126,14.126v4.944c0,7.801,6.326,14.126,14.126,14.126
			c7.801,0,14.127-6.326,14.127-14.126v-4.944C99.747,405.24,93.423,398.914,85.621,398.914z"/>
	</g>
</g>
<g>
</g>
<g>
</g>
<g>
</g>
<g>
</g>
<g>
</g>
<g>
</g>
<g>
</g>
<g>
</g>
<g>
</g>
<g>
</g>
<g>
</g>
<g>
</g>
<g>
</g>
<g>
</g>
<g>
</g>
</svg>
