<?xml version="1.0" encoding="iso-8859-1"?>
<!-- Generator: Adobe Illustrator 19.0.0, SVG Export Plug-In . SVG Version: 6.00 Build 0)  -->
<svg version="1.1" id="Layer_1" xmlns="http://www.w3.org/2000/svg" xmlns:xlink="http://www.w3.org/1999/xlink" x="0px" y="0px"
	 viewBox="0 0 512 512" style="enable-background:new 0 0 512 512;" xml:space="preserve">
<g>
	<g>
		<path d="M135.23,13.037c-24.465,0-45.269,15.912-52.646,37.926H17.778C7.96,50.962,0,58.922,0,68.74
			c0,9.818,7.96,17.778,17.778,17.778h64.932c7.484,21.822,28.192,37.556,52.52,37.556c30.613,0,55.519-24.905,55.519-55.519
			S165.842,13.037,135.23,13.037z"/>
	</g>
</g>
<g>
	<g>
		<path d="M256,200.488c-24.393,0-45.147,15.82-52.58,37.734H17.778C7.96,238.222,0,246.181,0,255.999
			c0,9.818,7.96,17.778,17.778,17.778h185.638c7.429,21.921,28.186,37.749,52.584,37.749c30.613,0,55.519-24.907,55.519-55.52
			S286.613,200.488,256,200.488z"/>
	</g>
</g>
<g>
	<g>
		<path d="M376.77,387.926c-24.327,0-45.035,15.734-52.519,37.556H17.778C7.96,425.482,0,433.442,0,443.26
			c0,9.818,7.96,17.778,17.778,17.778h306.348c7.377,22.014,28.18,37.926,52.645,37.926c30.613,0,55.519-24.905,55.519-55.519
			S407.384,387.926,376.77,387.926z"/>
	</g>
</g>
<g>
	<g>
		<path d="M493.72,50.962H231.513c-3.569,0-6.302,3.128-5.871,6.67c0.871,7.176,0.907,14.624-0.039,22.203
			c-0.442,3.546,2.296,6.682,5.869,6.682h262.751c10.104,0,18.239-8.428,17.758-18.638C511.529,58.319,503.292,50.962,493.72,50.962
			z"/>
	</g>
</g>
<g>
	<g>
		<path d="M493.72,238.222H352.262c-3.571,0-6.306,3.131-5.87,6.676c0.884,7.176,0.934,14.622,0.001,22.203
			c-0.436,3.545,2.299,6.676,5.87,6.676h141.959c10.104,0,18.239-8.428,17.758-18.638
			C511.529,245.578,503.292,238.222,493.72,238.222z"/>
	</g>
</g>
<g>
	<g>
		<path d="M493.72,425.481h-20.706c-3.575,0-6.312,3.136-5.869,6.682c0.897,7.188,0.958,14.637,0.039,22.203
			c-0.43,3.543,2.303,6.67,5.871,6.67h21.167c10.104,0,18.239-8.428,17.758-18.638C511.529,432.837,503.292,425.481,493.72,425.481z
			"/>
	</g>
</g>
<g>
</g>
<g>
</g>
<g>
</g>
<g>
</g>
<g>
</g>
<g>
</g>
<g>
</g>
<g>
</g>
<g>
</g>
<g>
</g>
<g>
</g>
<g>
</g>
<g>
</g>
<g>
</g>
<g>
</g>
</svg>
