<?xml version="1.0" encoding="iso-8859-1"?>
<!-- Generator: Adobe Illustrator 16.0.0, SVG Export Plug-In . SVG Version: 6.00 Build 0)  -->
<!DOCTYPE svg PUBLIC "-//W3C//DTD SVG 1.1//EN" "http://www.w3.org/Graphics/SVG/1.1/DTD/svg11.dtd">
<svg version="1.1" id="Capa_1" xmlns="http://www.w3.org/2000/svg" xmlns:xlink="http://www.w3.org/1999/xlink" x="0px" y="0px"
	 width="394.751px" height="394.751px" viewBox="0 0 394.751 394.751" style="enable-background:new 0 0 394.751 394.751;"
	 xml:space="preserve">
<g>
	<path d="M197.38,0C88.548,0,0.004,88.536,0.004,197.377c0,108.834,88.536,197.374,197.376,197.374
		c108.836,0,197.367-88.548,197.367-197.374C394.747,88.548,306.207,0,197.38,0z M17.863,225.377c-1.421-9.133-2.158-18.49-2.158-28
		C15.705,97.198,97.2,15.701,197.38,15.701c8.093,0,16.056,0.591,23.878,1.617l-13.815,20.366
		c-3.342-0.207-6.674-0.505-10.062-0.505c-88.332,0-160.197,71.865-160.197,160.199c0,4.408,0.307,8.757,0.66,13.08L17.863,225.377z
		 M45.402,204.792c-0.123-2.477-0.377-4.913-0.377-7.414c0-84.003,68.347-152.348,152.346-152.348c1.666,0,3.274,0.199,4.923,0.252
		l-17.871,26.353c-59.637,6.091-107.11,53.838-112.831,113.588L45.402,204.792z M178.437,80.489l-34.203,50.458l-63.762,47.65
		C88.518,128.332,128.188,88.616,178.437,80.489z M197.38,264.093c-36.844,0-66.72-29.875-66.72-66.716
		c0-36.842,29.875-66.723,66.72-66.723c36.842,0,66.718,29.881,66.718,66.723C264.098,234.218,234.222,264.093,197.38,264.093z"/>
	<path d="M231.981,197.377c0,19.084-15.524,34.608-34.602,34.608c-4.342,0-7.851,3.503-7.851,7.851c0,4.34,3.508,7.851,7.851,7.851
		c27.733,0,50.303-22.569,50.303-50.31c0-4.342-3.502-7.852-7.851-7.852C235.492,189.525,231.981,193.036,231.981,197.377z"/>
</g>
<g>
</g>
<g>
</g>
<g>
</g>
<g>
</g>
<g>
</g>
<g>
</g>
<g>
</g>
<g>
</g>
<g>
</g>
<g>
</g>
<g>
</g>
<g>
</g>
<g>
</g>
<g>
</g>
<g>
</g>
</svg>
