<?xml version="1.0" encoding="iso-8859-1"?>
<!-- Generator: Adobe Illustrator 19.0.0, SVG Export Plug-In . SVG Version: 6.00 Build 0)  -->
<svg version="1.1" id="Layer_1" xmlns="http://www.w3.org/2000/svg" xmlns:xlink="http://www.w3.org/1999/xlink" x="0px" y="0px"
	 viewBox="0 0 512 512" style="enable-background:new 0 0 512 512;" xml:space="preserve">
<g>
	<g>
		<path d="M437.019,74.981C388.668,26.628,324.38,0,256,0C187.62,0,123.333,26.629,74.981,74.981C26.628,123.332,0,187.62,0,256
			s26.629,132.667,74.981,181.019C123.332,485.372,187.62,512,256,512s132.667-26.629,181.019-74.981
			C485.372,388.668,512,324.38,512,256C512,187.62,485.371,123.333,437.019,74.981z M425.937,425.937
			c-45.393,45.391-105.743,70.39-169.937,70.39s-124.544-24.998-169.937-70.39C40.672,380.544,15.673,320.193,15.673,256
			s24.998-124.544,70.39-169.937C131.455,40.672,191.806,15.673,256,15.673c64.193,0,124.545,24.998,169.937,70.39
			c45.391,45.392,70.39,105.744,70.39,169.937S471.328,380.544,425.937,425.937z"/>
	</g>
</g>
<g>
	<g>
		<path d="M40.393,257.811h15.673c0-109.829,89.353-199.184,199.184-199.184V42.954C136.777,42.954,40.393,139.338,40.393,257.811z"
			/>
	</g>
</g>
<g>
	<g>
		<path d="M469.972,250.162l-15.663,0.549c0.083,2.365,0.124,4.753,0.124,7.1c0,109.83-89.353,199.184-199.184,199.184v15.673
			c118.473,0,214.857-96.385,214.857-214.857C470.107,255.282,470.062,252.709,469.972,250.162z"/>
	</g>
</g>
<g>
	<g>
		<path d="M81.535,257.811h15.674c0-87.143,70.897-158.041,158.041-158.041V84.097C159.463,84.097,81.535,162.025,81.535,257.811z"
			/>
	</g>
</g>
<g>
	<g>
		<path d="M413.291,257.811c0,87.143-70.897,158.041-158.041,158.041v15.673c95.787,0,173.714-77.927,173.714-173.714H413.291z"/>
	</g>
</g>
<g>
	<g>
		<path d="M122.678,257.811h15.673c0-64.458,52.44-116.898,116.898-116.898v-15.673C182.15,125.239,122.678,184.711,122.678,257.811
			z"/>
	</g>
</g>
<g>
	<g>
		<path d="M372.148,257.811c0,64.458-52.439,116.898-116.898,116.898v15.674c73.1,0,132.571-59.471,132.571-132.571H372.148z"/>
	</g>
</g>
<g>
	<g>
		<path d="M256,164.571c-50.414,0-91.429,41.014-91.429,91.429s41.014,91.429,91.429,91.429s91.429-41.014,91.429-91.429
			S306.414,164.571,256,164.571z M256,331.755c-41.772,0-75.755-33.983-75.755-75.755c0-41.772,33.983-75.755,75.755-75.755
			c41.772,0,75.755,33.983,75.755,75.755S297.772,331.755,256,331.755z"/>
	</g>
</g>
<g>
	<g>
		<path d="M256,222.041c-18.726,0-33.959,15.235-33.959,33.959s15.234,33.959,33.959,33.959c18.726,0,33.959-15.235,33.959-33.959
			S274.726,222.041,256,222.041z M256,274.286c-10.082,0-18.286-8.203-18.286-18.286c0-10.082,8.203-18.286,18.286-18.286
			c10.082,0,18.286,8.203,18.286,18.286C274.286,266.082,266.082,274.286,256,274.286z"/>
	</g>
</g>
<g>
	<g>
		<path d="M256,190.694c-36.01,0-65.306,29.297-65.306,65.306S219.99,321.306,256,321.306s65.306-29.297,65.306-65.306
			S292.01,190.694,256,190.694z M256,305.633c-27.367,0-49.633-22.266-49.633-49.633s22.266-49.633,49.633-49.633
			c27.367,0,49.633,22.266,49.633,49.633S283.367,305.633,256,305.633z"/>
	</g>
</g>
<g>
</g>
<g>
</g>
<g>
</g>
<g>
</g>
<g>
</g>
<g>
</g>
<g>
</g>
<g>
</g>
<g>
</g>
<g>
</g>
<g>
</g>
<g>
</g>
<g>
</g>
<g>
</g>
<g>
</g>
</svg>
